<?xml version="1.0" encoding="utf-8"?>
<!-- Generator: Adobe Illustrator 21.0.2, SVG Export Plug-In . SVG Version: 6.00 Build 0)  -->
<svg version="1.1" id="Layer_1" xmlns="http://www.w3.org/2000/svg" xmlns:xlink="http://www.w3.org/1999/xlink" x="0px" y="0px"
	 viewBox="0 0 1000 1000" style="enable-background:new 0 0 1000 1000;" xml:space="preserve">
<style type="text/css">
	.st0{fill:#99C699;}
	.st1{fill:#E2BABA;}
	.st2{fill:#6F768C;}
	.st3{fill:#BA7878;}
	.st4{clip-path:url(#SVGID_2_);}
	.st5{clip-path:url(#SVGID_4_);}
	.st6{clip-path:url(#SVGID_6_);}
	.st7{clip-path:url(#SVGID_14_);}
	.st8{clip-path:url(#SVGID_15_);}
	.st9{clip-path:url(#SVGID_16_);}
	.st10{clip-path:url(#SVGID_17_);}
	.st11{clip-path:url(#SVGID_18_);}
	.st12{clip-path:url(#SVGID_19_);}
	.st13{fill:#FFFFFF;}
	.st14{fill:#DBC6C6;}
	.st15{clip-path:url(#SVGID_22_);}
	.st16{fill:none;}
</style>
<g>
	<g>
		<path class="st0" d="M0,500c0,136.2,54.5,259.6,142.9,349.8V150.2C54.5,240.4,0,363.8,0,500z"/>
		<path class="st1" d="M142.9,150.2v699.6c41,41.9,89.3,76.6,142.9,102V48.2C232.2,73.6,183.9,108.3,142.9,150.2z"/>
		<path class="st0" d="M285.7,48.2v903.6c44.4,21.1,92.4,35.8,142.9,43V5.2C378.1,12.4,330.1,27.1,285.7,48.2z"/>
		<path class="st1" d="M500,0c-24.3,0-48.1,1.8-71.4,5.2v989.7c23.3,3.3,47.2,5.2,71.4,5.2s48.1-1.8,71.4-5.2V5.2
			C548.1,1.8,524.3,0,500,0z"/>
		<path class="st0" d="M571.4,5.2v989.7c50.4-7.2,98.5-21.9,142.9-43V48.2C669.9,27.1,621.9,12.4,571.4,5.2z"/>
		<path class="st1" d="M714.3,48.2v903.6c53.6-25.4,101.8-60.2,142.9-102V150.2C816.1,108.3,767.8,73.6,714.3,48.2z"/>
		<path class="st0" d="M857.1,150.2v699.6C945.5,759.6,1000,636.2,1000,500S945.5,240.4,857.1,150.2z"/>
	</g>
	<path class="st2" d="M142.9,150.2v699.6c41,41.9,89.3,76.6,142.9,102V48.2C232.2,73.6,183.9,108.3,142.9,150.2z"/>
	<path class="st2" d="M500,0c-24.3,0-48.1,1.8-71.4,5.2v989.7c23.3,3.3,47.2,5.2,71.4,5.2s48.1-1.8,71.4-5.2V5.2
		C548.1,1.8,524.3,0,500,0z"/>
	<path class="st2" d="M714.3,48.2v903.6c53.6-25.4,101.8-60.2,142.9-102V150.2C816.1,108.3,767.8,73.6,714.3,48.2z"/>
</g>
<g>
	<g>
		<path class="st0" d="M0,500c0,136.2,54.5,259.6,142.9,349.8V150.2C54.5,240.4,0,363.8,0,500z"/>
		<path class="st1" d="M142.9,150.2v699.6c41,41.9,89.3,76.6,142.9,102V48.2C232.2,73.6,183.9,108.3,142.9,150.2z"/>
		<path class="st0" d="M285.7,48.2v903.6c44.4,21.1,92.4,35.8,142.9,43V5.2C378.1,12.4,330.1,27.1,285.7,48.2z"/>
		<path class="st1" d="M500,0c-24.3,0-48.1,1.8-71.4,5.2v989.7c23.3,3.3,47.2,5.2,71.4,5.2s48.1-1.8,71.4-5.2V5.2
			C548.1,1.8,524.3,0,500,0z"/>
		<path class="st0" d="M571.4,5.2v989.7c50.4-7.2,98.5-21.9,142.9-43V48.2C669.9,27.1,621.9,12.4,571.4,5.2z"/>
		<path class="st1" d="M714.3,48.2v903.6c53.6-25.4,101.8-60.2,142.9-102V150.2C816.1,108.3,767.8,73.6,714.3,48.2z"/>
		<path class="st0" d="M857.1,150.2v699.6C945.5,759.6,1000,636.2,1000,500S945.5,240.4,857.1,150.2z"/>
	</g>
	<path class="st2" d="M142.9,150.2v699.6c41,41.9,89.3,76.6,142.9,102V48.2C232.2,73.6,183.9,108.3,142.9,150.2z"/>
	<path class="st2" d="M500,0c-24.3,0-48.1,1.8-71.4,5.2v989.7c23.3,3.3,47.2,5.2,71.4,5.2s48.1-1.8,71.4-5.2V5.2
		C548.1,1.8,524.3,0,500,0z"/>
	<path class="st2" d="M714.3,48.2v903.6c53.6-25.4,101.8-60.2,142.9-102V150.2C816.1,108.3,767.8,73.6,714.3,48.2z"/>
</g>
<g>
	<defs>
		<path id="SVGID_3_" d="M-108.5-612.6c-29.3-29.9-63.8-54.7-102-72.9c-31.7-15.1-66-25.6-102-30.7c-16.7-2.4-33.7-3.7-51-3.7
			c-17.3,0-34.4,1.3-51,3.7c-36,5.2-70.3,15.7-102,30.7c-38.3,18.2-72.7,43-102,72.9c-63.1,64.4-102,152.6-102,249.8
			s38.9,185.4,102,249.8c29.3,29.9,63.8,54.7,102,72.9c31.7,15.1,66,25.6,102,30.7c16.7,2.4,33.7,3.7,51,3.7c17.3,0,34.4-1.3,51-3.7
			c36-5.2,70.3-15.7,102-30.7c38.3-18.2,72.7-43,102-72.9c63.1-64.4,102-152.6,102-249.8S-45.4-548.2-108.5-612.6z"/>
	</defs>
	<clipPath id="SVGID_2_">
		<use xlink:href="#SVGID_3_"  style="overflow:visible;"/>
	</clipPath>
	<g class="st4">
	</g>
</g>
<path class="st16" d="M755.1,250.2c-29.3-29.9-63.8-54.7-102-72.9c-31.7-15.1-66-25.6-102-30.7c-16.7-2.4-33.7-3.7-51-3.7
	c-17.3,0-34.4,1.3-51,3.7c-36,5.2-70.3,15.7-102,30.7c-38.3,18.2-72.7,43-102,72.9c-63.1,64.4-102,152.6-102,249.8
	s38.9,185.4,102,249.8c29.3,29.9,63.8,54.7,102,72.9c31.7,15.1,66,25.6,102,30.7c16.7,2.4,33.7,3.7,51,3.7c17.3,0,34.4-1.3,51-3.7
	c36-5.2,70.3-15.7,102-30.7c38.3-18.2,72.7-43,102-72.9c63.1-64.4,102-152.6,102-249.8S818.2,314.6,755.1,250.2z"/>
<path class="st16" d="M653.1,350.1c-17.6-17.9-38.3-32.8-61.2-43.7c-19-9-39.6-15.3-61.2-18.4c-10-1.4-20.2-2.2-30.6-2.2
	c-10.4,0-20.6,0.8-30.6,2.2c-21.6,3.1-42.2,9.4-61.2,18.4c-23,10.9-43.6,25.8-61.2,43.7c-37.9,38.6-61.2,91.5-61.2,149.9
	s23.4,111.3,61.2,149.9c17.6,17.9,38.3,32.8,61.2,43.7c19,9,39.6,15.3,61.2,18.4c10,1.4,20.2,2.2,30.6,2.2c10.4,0,20.6-0.8,30.6-2.2
	c21.6-3.1,42.2-9.4,61.2-18.4c23-10.9,43.6-25.8,61.2-43.7c37.9-38.6,61.2-91.5,61.2-149.9S690.9,388.7,653.1,350.1z"/>
</svg>
