<?xml version="1.0" encoding="utf-8"?>
<!-- Generator: Adobe Illustrator 21.0.2, SVG Export Plug-In . SVG Version: 6.00 Build 0)  -->
<svg version="1.1" id="Layer_1" xmlns="http://www.w3.org/2000/svg" xmlns:xlink="http://www.w3.org/1999/xlink" x="0px" y="0px"
	 viewBox="0 0 1000 1000" style="enable-background:new 0 0 1000 1000;" xml:space="preserve">
<style type="text/css">
	.st0{fill:#BA7878;}
	.st1{fill:#E2BABA;}
	.st2{clip-path:url(#SVGID_2_);}
	.st3{clip-path:url(#SVGID_4_);}
	.st4{clip-path:url(#SVGID_12_);}
	.st5{clip-path:url(#SVGID_13_);}
	.st6{clip-path:url(#SVGID_14_);}
	.st7{clip-path:url(#SVGID_15_);}
	.st8{clip-path:url(#SVGID_16_);}
	.st9{clip-path:url(#SVGID_17_);}
</style>
<g>
	<path class="st0" d="M0,500c0,136.2,54.5,259.6,142.9,349.8V150.2C54.5,240.4,0,363.8,0,500z"/>
	<path class="st1" d="M142.9,150.2v699.6c41,41.9,89.3,76.6,142.9,102V48.2C232.2,73.6,183.9,108.3,142.9,150.2z"/>
	<path class="st0" d="M285.7,48.2v903.6c44.4,21.1,92.4,35.8,142.9,43V5.2C378.1,12.4,330.1,27.1,285.7,48.2z"/>
	<path class="st1" d="M500,0c-24.3,0-48.1,1.8-71.4,5.2v989.7c23.3,3.3,47.2,5.2,71.4,5.2s48.1-1.8,71.4-5.2V5.2
		C548.1,1.8,524.3,0,500,0z"/>
	<path class="st0" d="M571.4,5.2v989.7c50.4-7.2,98.5-21.9,142.9-43V48.2C669.9,27.1,621.9,12.4,571.4,5.2z"/>
	<path class="st1" d="M714.3,48.2v903.6c53.6-25.4,101.8-60.2,142.9-102V150.2C816.1,108.3,767.8,73.6,714.3,48.2z"/>
	<path class="st0" d="M857.1,150.2v699.6C945.5,759.6,1000,636.2,1000,500S945.5,240.4,857.1,150.2z"/>
</g>
</svg>
