<?xml version="1.0" encoding="utf-8"?>
<!-- Generator: Adobe Illustrator 21.0.2, SVG Export Plug-In . SVG Version: 6.00 Build 0)  -->
<svg version="1.1" id="Layer_1" xmlns="http://www.w3.org/2000/svg" xmlns:xlink="http://www.w3.org/1999/xlink" x="0px" y="0px"
	 viewBox="0 0 1000 1000" style="enable-background:new 0 0 1000 1000;" xml:space="preserve">
<style type="text/css">
	.st0{fill:#BA7878;}
	.st1{fill:#E2BABA;}
	.st2{clip-path:url(#SVGID_2_);}
	.st3{clip-path:url(#SVGID_4_);}
	.st4{clip-path:url(#SVGID_12_);}
	.st5{clip-path:url(#SVGID_13_);}
	.st6{clip-path:url(#SVGID_14_);}
	.st7{clip-path:url(#SVGID_15_);}
	.st8{clip-path:url(#SVGID_16_);}
	.st9{clip-path:url(#SVGID_17_);}
</style>
<g>
	<path class="st0" d="M0,500c0,136.2,54.5,259.6,142.9,349.8V150.2C54.5,240.4,0,363.8,0,500z"/>
	<path class="st1" d="M142.9,150.2v699.6c41,41.9,89.3,76.6,142.9,102V48.2C232.2,73.6,183.9,108.3,142.9,150.2z"/>
	<path class="st0" d="M285.7,48.2v903.6c44.4,21.1,92.4,35.8,142.9,43V5.2C378.1,12.4,330.1,27.1,285.7,48.2z"/>
	<path class="st1" d="M500,0c-24.3,0-48.1,1.8-71.4,5.2v989.7c23.3,3.3,47.2,5.2,71.4,5.2s48.1-1.8,71.4-5.2V5.2
		C548.1,1.8,524.3,0,500,0z"/>
	<path class="st0" d="M571.4,5.2v989.7c50.4-7.2,98.5-21.9,142.9-43V48.2C669.9,27.1,621.9,12.4,571.4,5.2z"/>
	<path class="st1" d="M714.3,48.2v903.6c53.6-25.4,101.8-60.2,142.9-102V150.2C816.1,108.3,767.8,73.6,714.3,48.2z"/>
	<path class="st0" d="M857.1,150.2v699.6C945.5,759.6,1000,636.2,1000,500S945.5,240.4,857.1,150.2z"/>
</g>
<g>
	<g>
		<defs>
			<path id="SVGID_1_" d="M840.7,393.1c-12.5-39.9-32-77.7-57.9-111.2c-21.4-27.8-47.2-52.7-77-73.7c-13.8-9.7-28.4-18.6-43.8-26.4
				c-15.4-7.9-31.2-14.4-47.1-19.9c-34.4-11.7-69.8-17.9-104.9-18.9c-42.3-1.2-84.3,5.3-124,18.7c-85.4,28.8-160.1,89.7-204.3,176.4
				s-49.4,182.9-22.4,269c12.5,39.9,32,77.7,57.9,111.2c21.4,27.8,47.2,52.7,77,73.7c13.8,9.7,28.4,18.6,43.8,26.4
				s31.2,14.4,47.1,19.9c34.4,11.7,69.8,17.9,104.9,18.9c42.3,1.2,84.3-5.3,124-18.7c85.4-28.8,160.1-89.7,204.3-176.4
				S867.7,479.1,840.7,393.1z"/>
		</defs>
		<clipPath id="SVGID_2_">
			<use xlink:href="#SVGID_1_"  style="overflow:visible;"/>
		</clipPath>
		<g class="st2">
			<path class="st0" d="M54.4,273.2C-7.4,394.6-14.8,529.3,23,649.7L340.4,26.3C220.8,66.6,116.2,151.8,54.4,273.2z"/>
			<path class="st1" d="M340.4,26.3L23,649.7c17.6,55.9,44.8,108.8,81,155.7L514,0.1C454.7-1.5,395.9,7.6,340.4,26.3z"/>
			<path class="st0" d="M514,0.1L104.1,805.5c30,38.9,66.1,73.8,107.8,103.1l448.9-882C612.6,10.2,563.1,1.5,514,0.1z"/>
			<path class="st1" d="M726.8,54.4c-21.6-11-43.7-20.2-66-27.8l-448.9,882c19.3,13.6,39.7,26,61.3,37c21.6,11,43.7,20.2,66,27.8
				l448.9-882C768.8,77.8,748.4,65.4,726.8,54.4z"/>
			<path class="st0" d="M788.1,91.4l-448.9,882c48.2,16.4,97.7,25.1,146.8,26.5l409.9-805.3C865.9,155.6,829.8,120.7,788.1,91.4z"/>
			<path class="st1" d="M895.9,194.5L486,999.9c59.3,1.6,118-7.4,173.6-26.1L977,350.3C959.4,294.3,932.1,241.5,895.9,194.5z"/>
			<path class="st0" d="M977,350.3L659.6,973.7c119.6-40.3,224.2-125.5,286-246.9S1014.8,470.7,977,350.3z"/>
		</g>
	</g>
	<g>
		<defs>
			<path id="SVGID_3_" d="M630.2,670.2c20-15.3,37.2-34,50.9-55.4c11.3-17.8,20.1-37.4,25.8-58.5c2.6-9.8,4.7-19.8,5.9-30.1
				c1.3-10.3,1.7-20.6,1.5-30.7c-0.4-21.8-4.2-43-10.8-63c-8-24.1-20.3-46.5-35.9-66.1c-33.7-42.3-83.4-71.9-141.3-79
				c-57.9-7.1-113.3,9.6-156.3,42.5c-20,15.3-37.2,34-50.9,55.4c-11.3,17.8-20.1,37.4-25.8,58.5c-2.6,9.8-4.7,19.8-5.9,30.1
				c-1.3,10.3-1.7,20.6-1.5,30.7c0.4,21.8,4.2,43,10.8,63c8,24.1,20.3,46.5,35.9,66.1c33.7,42.3,83.4,71.9,141.3,79
				C531.8,719.8,587.2,703,630.2,670.2z"/>
		</defs>
		<clipPath id="SVGID_4_">
			<use xlink:href="#SVGID_3_"  style="overflow:visible;"/>
		</clipPath>
		<g class="st3">
			<path class="st0" d="M560.9,3.7c-135.2-16.6-264.3,22.5-364.6,99.2l694.4,85.2C811.9,89.5,696.1,20.3,560.9,3.7z"/>
			<path class="st1" d="M890.7,188.1l-694.4-85.2c-46.6,35.6-86.9,79.3-118.7,129.4l896.9,110.1
				C955.8,286.1,927.2,233.9,890.7,188.1z"/>
			<path class="st0" d="M974.6,342.3L77.6,232.3c-26.4,41.5-46.8,87.4-60.1,136.6l982.3,120.5C998.8,438.4,990.1,389,974.6,342.3z"
				/>
			<path class="st1" d="M996.3,560.9c3-24.1,4-48,3.6-71.5L17.5,368.8C11.4,391.6,6.7,415,3.7,439.1s-4,48-3.6,71.5l982.3,120.5
				C988.6,608.4,993.3,585,996.3,560.9z"/>
			<path class="st0" d="M982.5,631.2L0.1,510.6c1,50.9,9.8,100.4,25.3,147l896.9,110.1C948.7,726.2,969.1,680.4,982.5,631.2z"/>
			<path class="st1" d="M922.4,767.7L25.4,657.7c18.7,56.3,47.3,108.4,83.9,154.2l694.4,85.2C850.2,861.5,890.6,817.8,922.4,767.7z"
				/>
			<path class="st0" d="M803.7,897.1l-694.4-85.2c78.7,98.7,194.6,167.8,329.8,184.4S703.4,973.8,803.7,897.1z"/>
		</g>
	</g>
	<g>
		<defs>
			<path id="SVGID_5_" d="M0,500c0,136.2,54.5,259.6,142.9,349.8V150.2C54.5,240.4,0,363.8,0,500z"/>
		</defs>
		<defs>
			<path id="SVGID_6_" d="M142.9,150.2v699.6c41,41.9,89.3,76.6,142.9,102V48.2C232.2,73.6,183.9,108.3,142.9,150.2z"/>
		</defs>
		<defs>
			<path id="SVGID_7_" d="M285.7,48.2v903.6c44.4,21.1,92.4,35.8,142.9,43V5.2C378.1,12.4,330.1,27.1,285.7,48.2z"/>
		</defs>
		<defs>
			<path id="SVGID_8_" d="M500,0c-24.3,0-48.1,1.8-71.4,5.2v989.7c23.3,3.3,47.2,5.2,71.4,5.2s48.1-1.8,71.4-5.2V5.2
				C548.1,1.8,524.3,0,500,0z"/>
		</defs>
		<defs>
			<path id="SVGID_9_" d="M571.4,5.2v989.7c50.4-7.2,98.5-21.9,142.9-43V48.2C669.9,27.1,621.9,12.4,571.4,5.2z"/>
		</defs>
		<defs>
			<path id="SVGID_10_" d="M714.3,48.2v903.6c53.6-25.4,101.8-60.2,142.9-102V150.2C816.1,108.3,767.8,73.6,714.3,48.2z"/>
		</defs>
		<defs>
			<path id="SVGID_11_" d="M857.1,150.2v699.6C945.5,759.6,1000,636.2,1000,500S945.5,240.4,857.1,150.2z"/>
		</defs>
		<clipPath id="SVGID_12_">
			<use xlink:href="#SVGID_5_"  style="overflow:visible;"/>
		</clipPath>
		<clipPath id="SVGID_13_" class="st4">
			<use xlink:href="#SVGID_6_"  style="overflow:visible;"/>
		</clipPath>
		<clipPath id="SVGID_14_" class="st5">
			<use xlink:href="#SVGID_7_"  style="overflow:visible;"/>
		</clipPath>
		<clipPath id="SVGID_15_" class="st6">
			<use xlink:href="#SVGID_8_"  style="overflow:visible;"/>
		</clipPath>
		<clipPath id="SVGID_16_" class="st7">
			<use xlink:href="#SVGID_9_"  style="overflow:visible;"/>
		</clipPath>
		<clipPath id="SVGID_17_" class="st8">
			<use xlink:href="#SVGID_10_"  style="overflow:visible;"/>
		</clipPath>
		<clipPath id="SVGID_18_" class="st9">
			<use xlink:href="#SVGID_11_"  style="overflow:visible;"/>
		</clipPath>
	</g>
	<circle class="st1" cx="500" cy="500" r="71.4"/>
</g>
</svg>
