<?xml version="1.0" encoding="utf-8"?>
<!-- Generator: Adobe Illustrator 21.0.2, SVG Export Plug-In . SVG Version: 6.00 Build 0)  -->
<svg version="1.1" id="Layer_1" xmlns="http://www.w3.org/2000/svg" xmlns:xlink="http://www.w3.org/1999/xlink" x="0px" y="0px"
	 viewBox="0 0 1000 1000" style="enable-background:new 0 0 1000 1000;" xml:space="preserve">
<style type="text/css">
	.st0{fill:#333333;}
	.st1{fill:#93EE95;}
	.st2{fill:#92EB93;}
	.st3{fill:none;}
</style>
<g>
	<path class="st0" d="M989.1,598.7c-6.7,34.4-17.5,67.6-31.4,99.7c-18,0-36.1,0-55.6,0c10.1,18.4,17.1,36.8,27.9,53.3
		c-16.7,29.7-36.6,57-60.1,81.7c-22.4-44.8-44.7-89.6-67.5-135.1C769,765,736.1,830.9,702.5,898c33.1,0,64.6,0,96.1,0
		c-19.1,16.1-40.6,28.6-62.5,40.4c-166.7,90.1-374.1,76.3-527.4-35.1c-2.2-1.6-5-2.5-6-5.4c0.8-1.1,1.9-2,2.5-3.2
		c32-63.9,63.9-127.7,95.8-191.6c0.7-1.3,2.1-2.8,0.8-4.3c-65.6,0-131.1,0-197.3,0c1.6,3.4,2.8,6.2,4.1,8.8
		c30.1,60.2,60.2,120.3,90.2,180.5c1.6,3.2,4,6,4,9.9c-14.3-8.5-26.5-19.7-38.7-30.9c-81-74.8-132.1-166.4-153.7-274.4
		c-0.5-2.4-0.7-4.9-1-7.4c2.7-1,3.1-3.7,4.2-5.9c29-57.9,58-115.8,86.9-173.8c0.9-1.9,2.7-3.6,1.6-6.8c-29.9,0-60.1,0-90.2,0
		c6.7-34.4,17.5-67.6,31.4-99.7c18.2,0,36.4,0,54.7,0.2c3.9,0,5.8-0.4,3.5-4.9c-9.3-17.9-18.3-35.8-27.5-53.8
		c17.1-29,36.9-55.9,60.5-80c22.9,45.9,45.8,91.9,69.2,138.7c33.4-66.9,66.3-132.7,99.8-199.7c-34.7,0-67.9,0-101.1,0
		c18.9-15.9,40.1-28.3,61.7-40c169.2-91.7,379.4-76.5,533.7,38.6c1.3,1,2.5,2.2,3.7,3.2c-32.9,65.6-65.7,131.2-98.8,197.2
		c67.1,0,132.5,0,198.7,0c-1.8-3.7-3.1-6.7-4.6-9.6c-29.1-58.2-58.2-116.4-87.2-174.6c-1.3-2.6-4.8-5.1-2.1-8.8
		c96.7,77.3,157.8,176.4,182.4,297.8c1,5.1,1.7,10.4,2.5,15.5c-0.9,1.3-2,2.6-2.7,4c-28.3,56.6-56.6,113.2-84.9,169.8
		c-0.8,1.6-2.4,3.2-1,5.9C932.2,598.7,960.6,598.7,989.1,598.7z M503.2,698.7c33.3,66.6,66.2,132.5,99.6,199.2
		c33.5-66.9,66.3-132.7,99.5-199.2C635.5,698.7,570,698.7,503.2,698.7z M303.7,897.3c66.9,0,132.4,0,199,0
		c-33.3-66.7-66.2-132.5-99.5-199C370,764.9,337.1,830.7,303.7,897.3z M901.8,399.6c-66.9,0-132.4,0-199,0
		c33.3,66.7,66.2,132.5,99.5,199C835.6,532,868.5,466.2,901.8,399.6z M602.8,399c-33.4,66.8-66.3,132.6-99.6,199.2
		c66.8,0,132.3,0,199.1,0C669.1,531.7,636.2,465.9,602.8,399z M303.7,399.4c33.5,66.9,66.3,132.6,99.6,199.2
		c33.4-66.8,66.3-132.6,99.6-199.2C436,399.4,370.5,399.4,303.7,399.4z M203.7,399c-33.4,66.9-66.3,132.7-99.6,199.2
		c66.8,0,132.3,0,199.2,0C270,531.7,237.1,465.9,203.7,399z M702.3,100.2c-66.9,0-132.4,0-199,0c33.3,66.7,66.2,132.5,99.5,199
		C636.1,232.7,668.9,166.9,702.3,100.2z M502.9,299c-33.5-67-66.4-132.8-99.7-199.3c-33.4,66.8-66.3,132.7-99.6,199.3
		C370.7,299,436.1,299,502.9,299z"/>
	<path class="st2" d="M807.7,105.6c-2.7,3.7,0.8,6.2,2.1,8.8c29,58.2,58.1,116.4,87.2,174.6c1.5,2.9,2.8,5.9,4.6,9.6
		c-66.2,0-131.7,0-198.7,0c33.1-66,65.9-131.6,98.8-197.2C804,102.3,806.3,103.2,807.7,105.6z"/>
	<path class="st2" d="M202.4,99.6c33.2,0,66.4,0,101.1,0c-33.5,67-66.4,132.8-99.8,199.7c-23.3-46.8-46.2-92.7-69.2-138.7
		c7.3-11.2,17.6-19.8,27.3-28.7C174.6,120.3,186.9,107.9,202.4,99.6z"/>
	<path class="st2" d="M798.6,898c-31.5,0-63,0-96.1,0c33.5-67.1,66.5-133,99.8-199.7c22.8,45.6,45.1,90.3,67.5,135.1
		c-8,12.4-19.4,21.8-30.1,31.6C826.9,877,814.4,889.6,798.6,898z"/>
	<path class="st2" d="M11.9,398.9c30.1,0,60.3,0,90.2,0c1.1,3.2-0.7,4.9-1.6,6.8c-28.9,58-57.9,115.9-86.9,173.8
		c-1.1,2.1-1.4,4.9-4.2,5.9c-4.4-14-5.6-28.7-5.9-43.1c-0.7-29.1-0.9-58.2,0-87.2C4.2,436.1,6.4,417.2,11.9,398.9z"/>
	<path class="st2" d="M989.1,598.7c-28.5,0-56.9,0-85.1,0c-1.3-2.7,0.2-4.3,1-5.9c28.3-56.6,56.6-113.2,84.9-169.8
		c0.7-1.4,1.8-2.7,2.7-4c3.9,9.3,3.8,19.3,4.8,29c2.7,25.8,2.9,51.8,1.7,77.6c-1.1,23-3.7,45.9-8.2,68.6
		C990.6,595.7,989.7,597.2,989.1,598.7z"/>
	<path class="st2" d="M74.1,240.6c9.1,17.9,18.2,35.9,27.5,53.8c2.3,4.5,0.4,5-3.5,4.9c-18.2-0.1-36.4-0.1-54.7-0.2
		C51.6,278.6,61.2,258.7,74.1,240.6z"/>
	<path class="st2" d="M930,751.8c-10.9-16.5-17.9-34.9-27.9-53.3c19.5,0,37.6,0,55.6,0C950.2,717.1,941.7,735.3,930,751.8z"/>
	<path class="st2" d="M503.2,698.7c66.8,0,132.3,0,199.1,0c-33.2,66.5-66.1,132.2-99.5,199.2C569.4,831.2,536.5,765.4,503.2,698.7z"
		/>
	<path class="st2" d="M303.7,897.3c33.3-66.7,66.2-132.5,99.5-199c33.3,66.5,66.2,132.3,99.5,199
		C436.2,897.3,370.7,897.3,303.7,897.3z"/>
	<path class="st2" d="M202.9,898.1c0-3.8-2.5-6.7-4-9.9c-30-60.2-60.1-120.3-90.2-180.5c-1.3-2.7-2.5-5.4-4.1-8.8
		c66.2,0,131.7,0,197.3,0c1.3,1.5-0.1,2.9-0.8,4.3c-31.9,63.9-63.8,127.8-95.8,191.6c-0.6,1.2-1.6,2.1-2.5,3.2
		C202.7,898,202.9,898.1,202.9,898.1z"/>
	<path class="st2" d="M901.8,399.6c-33.3,66.7-66.2,132.5-99.5,199c-33.3-66.5-66.2-132.3-99.5-199
		C769.4,399.6,834.9,399.6,901.8,399.6z"/>
	<path class="st2" d="M602.8,399c33.4,66.9,66.3,132.7,99.6,199.2c-66.8,0-132.3,0-199.1,0C536.5,531.6,569.4,465.8,602.8,399z"/>
	<path class="st2" d="M303.7,399.4c66.9,0,132.4,0,199.1,0c-33.3,66.6-66.2,132.4-99.6,199.2C370,532,337.1,466.3,303.7,399.4z"/>
	<path class="st2" d="M203.7,399c33.4,66.9,66.3,132.6,99.6,199.2c-66.8,0-132.3,0-199.2,0C137.4,531.7,170.3,465.9,203.7,399z"/>
	<path class="st2" d="M702.3,100.2c-33.3,66.7-66.2,132.5-99.5,199c-33.3-66.5-66.2-132.4-99.5-199
		C569.9,100.2,635.4,100.2,702.3,100.2z"/>
	<path class="st2" d="M502.9,299c-66.8,0-132.2,0-199.3,0c33.3-66.7,66.2-132.6,99.6-199.3C436.5,166.2,469.4,232,502.9,299z"/>
	<circle class="st3" cx="500" cy="500" r="488.4"/>
</g>
</svg>
