<?xml version="1.0" encoding="utf-8"?>
<!-- Generator: Adobe Illustrator 21.0.2, SVG Export Plug-In . SVG Version: 6.00 Build 0)  -->
<svg version="1.1" id="Layer_1" xmlns="http://www.w3.org/2000/svg" xmlns:xlink="http://www.w3.org/1999/xlink" x="0px" y="0px"
	 viewBox="0 0 1000 1000" style="enable-background:new 0 0 1000 1000;" xml:space="preserve">
<style type="text/css">
	.st0{fill:#FC6CB3;}
	.st1{fill:#2EFBFB;}
	.st2{fill:#FEFC38;}
	.st3{fill:#333333;}
	.st4{fill:#93EE95;}
	.st5{fill:#92EB93;}
	.st6{fill:none;}
	.st7{clip-path:url(#SVGID_2_);fill:#333333;}
	.st8{clip-path:url(#SVGID_4_);fill:#333333;}
</style>
<g>
	<path class="st0" d="M715.5,396.1c1.5,3.1,0.8,6.3,0.8,9.5c0,99.1-0.1,198.1,0.2,297.2c0,8.6-2.3,10.5-10.7,10.5
		c-98.8-0.3-197.5-0.2-296.3-0.2c-3.2,0-6.4-0.4-9.6-0.6c0-105.3,0-210.7,0-316c4.1-0.1,8.2-0.2,12.3-0.2
		C513.3,396.2,614.4,396.2,715.5,396.1z"/>
	<path class="st1" d="M400,396.5c0,105.3,0,210.7,0,316c-8.2-7.9-16.6-15.7-24.6-23.7c-25.5-25.4-51-51-76.5-76.4
		c-3.3-3.3-5-6.6-5-11.5c0.1-101.7,0.1-203.4,0.1-305.1c0-1.4,0.3-2.9,0.5-4.3C329.7,326.5,364.8,361.5,400,396.5z"/>
	<path class="st2" d="M400,396.5c-35.2-35-70.3-70-105.5-105c3.1-1.5,6.3-0.9,9.5-0.9c99.6,0,199.3,0,298.9-0.1
		c5.7,0,9.7,1.7,13.7,5.7c31.1,31.4,62.5,62.7,93.8,94c1.8,1.8,3.4,3.9,5,5.9c-101.1,0-202.1,0.1-303.2,0.1
		C408.2,396.2,404.1,396.4,400,396.5z"/>
	<g>
		<defs>
			<circle id="SVGID_3_" cx="500" cy="500" r="500"/>
		</defs>
		<clipPath id="SVGID_2_">
			<use xlink:href="#SVGID_3_"  style="overflow:visible;"/>
		</clipPath>
		<path class="st7" d="M-22.9,501.4c-11.8-252,201.8-526.5,525.6-527.5c292-0.8,528.2,236.6,528,529.2
			c-0.2,291.2-237.4,527.9-529.8,526.5C178,1028.1-35.1,753.6-22.9,501.4z M294.5,291.5c-0.2,1.4-0.5,2.9-0.5,4.3
			c0,101.7,0,203.4-0.1,305.1c0,4.8,1.6,8.2,5,11.5c25.6,25.4,51,51,76.5,76.4c8.1,8,16.4,15.8,24.6,23.7c3.2,0.2,6.4,0.6,9.6,0.6
			c98.8,0,197.5-0.1,296.3,0.2c8.4,0,10.7-1.9,10.7-10.5c-0.3-99.1-0.2-198.1-0.2-297.2c0-3.2,0.7-6.5-0.8-9.5c-1.7-2-3.2-4.1-5-5.9
			c-31.3-31.3-62.6-62.5-93.8-94c-4-4.1-8-5.7-13.7-5.7c-99.6,0.2-199.3,0.1-298.9,0.1C300.8,290.6,297.5,290,294.5,291.5z"/>
	</g>
</g>
</svg>
