<?xml version="1.0" encoding="utf-8"?>
<!-- Generator: Adobe Illustrator 21.0.2, SVG Export Plug-In . SVG Version: 6.00 Build 0)  -->
<svg version="1.1" id="Layer_1" xmlns="http://www.w3.org/2000/svg" xmlns:xlink="http://www.w3.org/1999/xlink" x="0px" y="0px"
	 viewBox="0 0 1000 1000" style="enable-background:new 0 0 1000 1000;" xml:space="preserve">
<style type="text/css">
	.st0{fill:#FC6CB3;}
	.st1{fill:#2EFBFB;}
	.st2{fill:#FEFC38;}
	.st3{fill:#333333;}
	.st4{fill:#93EE95;}
	.st5{fill:#92EB93;}
	.st6{fill:none;}
	.st7{clip-path:url(#SVGID_2_);fill:#333333;}
</style>
<path class="st0" d="M294.1,603.9c-1.6-3.1-0.9-6.3-0.9-9.5c0-99.1,0.1-198.1-0.2-297.2c0-8.6,2.3-10.5,10.6-10.5
	c98.8,0.3,197.5,0.2,296.3,0.2c3.2,0,6.4,0.4,9.6,0.6c0,105.3,0,210.7,0,316c-4.1,0.1-8.2,0.2-12.3,0.2
	C496.3,603.8,395.2,603.9,294.1,603.9z"/>
<path class="st1" d="M609.6,603.5c0-105.3,0-210.7,0-316c8.2,7.9,16.6,15.7,24.6,23.7c25.5,25.4,51,51,76.5,76.4
	c3.3,3.3,5,6.6,5,11.5c-0.1,101.7-0.1,203.4-0.1,305.1c0,1.4-0.3,2.9-0.5,4.3C679.9,673.5,644.8,638.5,609.6,603.5z"/>
<path class="st2" d="M609.6,603.5c35.2,35,70.3,70,105.5,105c-3.1,1.5-6.3,0.9-9.5,0.9c-99.6,0-199.2,0-298.9,0.1
	c-5.7,0-9.7-1.6-13.8-5.7c-31.1-31.4-62.5-62.6-93.8-94c-1.8-1.8-3.4-3.9-5-5.9c101.1,0,202.1-0.1,303.2-0.2
	C601.4,603.8,605.5,603.6,609.6,603.5z"/>
<g>
	<defs>
		<circle id="SVGID_1_" cx="500" cy="500" r="500"/>
	</defs>
	<clipPath id="SVGID_2_">
		<use xlink:href="#SVGID_1_"  style="overflow:visible;"/>
	</clipPath>
	<path class="st7" d="M-23.7,498.1C-36.1,246.6,177.5-29,502.2-29.8c291.5-0.7,527.7,236.8,527.5,528.8
		c-0.1,291.3-237.1,528.2-529.4,526.9C176.5,1024.6-36.1,749.1-23.7,498.1z M715.1,708.5c0.2-1.4,0.5-2.9,0.5-4.3
		c0-101.7,0-203.4,0.1-305.1c0-4.8-1.6-8.2-5-11.5c-25.6-25.4-51-51-76.5-76.4c-8.1-8-16.4-15.8-24.6-23.7c-3.2-0.2-6.4-0.6-9.6-0.6
		c-98.8,0-197.5,0.1-296.3-0.2c-8.4,0-10.7,1.9-10.6,10.5c0.3,99.1,0.2,198.1,0.2,297.2c0,3.2-0.7,6.5,0.9,9.5c1.7,2,3.2,4.1,5,5.9
		c31.3,31.3,62.6,62.5,93.8,94c4,4.1,8,5.7,13.8,5.7c99.6-0.2,199.2-0.1,298.9-0.1C708.7,709.4,712,710,715.1,708.5z"/>
</g>
<g>
	<defs>
		<circle id="SVGID_3_" cx="419.9" cy="-573.9" r="500"/>
	</defs>
	<clipPath id="SVGID_4_">
		<use xlink:href="#SVGID_3_"  style="overflow:visible;"/>
	</clipPath>
	<g style="clip-path:url(#SVGID_4_);">
		
			<image style="overflow:visible;" width="716" height="686" xlink:href="../../../../../Desktop/Screen Shot 2018-04-03 at 12.48.31 PM.png"  transform="matrix(1.7603 0 0 1.7603 -190.1732 -1202.5747)">
		</image>
	</g>
</g>
</svg>
